<svg width="32" height="32" viewBox="0 0 32 32" fill="none" xmlns="http://www.w3.org/2000/svg">
<g clip-path="url(#clip0_275_13772)">
<path fill-rule="evenodd" clip-rule="evenodd" d="M10.2857 2.28571C10.2857 1.02335 9.26235 0 8 0C6.73765 0 5.71429 1.02335 5.71429 2.28571V4.57143H3.42857C1.53502 4.57143 0 6.10645 0 8V11.4286H32V8C32 6.10645 30.4649 4.57143 28.5714 4.57143H26.2859V2.28571C26.2859 1.02335 25.2626 0 24.0002 0C22.7379 0 21.7145 1.02335 21.7145 2.28571V4.57143H10.2857V2.28571ZM32 14.2857H0V28.5714C0 30.4649 1.53502 32 3.42857 32H28.5714C30.4649 32 32 30.4649 32 28.5714V14.2857Z" fill="#CCCCCC"/>
</g>
<defs>
<clipPath id="clip0_275_13772">
<rect width="32" height="32" fill="white"/>
</clipPath>
</defs>
</svg>
