<svg width="16" height="16" viewBox="0 0 16 16" fill="none" xmlns="http://www.w3.org/2000/svg">
<g clip-path="url(#clip0_287_22466)">
<path fill-rule="evenodd" clip-rule="evenodd" d="M1.64517 0.502103C1.96665 0.180611 2.4027 0 2.85735 0H9.71449C9.86605 0 10.0114 0.0602039 10.1186 0.167368L14.69 4.7388C14.7971 4.84595 14.8574 4.9913 14.8574 5.14286V14.2857C14.8574 14.7403 14.6768 15.1765 14.3553 15.4979C14.0338 15.8194 13.5977 16 13.1431 16H2.85735C2.40269 16 1.96665 15.8194 1.64517 15.4979C1.32368 15.1765 1.14307 14.7403 1.14307 14.2857V1.71429C1.14307 1.25963 1.32368 0.823593 1.64517 0.502103ZM8.21387 12.505L8.33265 12.3863C8.46576 12.2994 8.57964 12.1855 8.66653 12.0525L10.7853 9.93365C10.9896 9.72936 11.0507 9.42214 10.9401 9.15522C10.8296 8.88832 10.5691 8.71428 10.2802 8.71428H8.85166V4.57143C8.85166 3.94025 8.33998 3.42857 7.7088 3.42857C7.07761 3.42857 6.56595 3.94025 6.56595 4.57143V8.71428H5.13736C4.84846 8.71428 4.588 8.88832 4.47745 9.15522C4.36689 9.42214 4.428 9.72936 4.63229 9.93365L6.7511 12.0525C6.83797 12.1855 6.95183 12.2994 7.08491 12.3863L7.20372 12.505C7.33767 12.6391 7.51935 12.7143 7.70879 12.7143C7.89823 12.7143 8.07991 12.6391 8.21387 12.505Z" fill="black"/>
</g>
<defs>
<clipPath id="clip0_287_22466">
<rect width="16" height="16" fill="white"/>
</clipPath>
</defs>
</svg>
