<svg width="24" height="16" viewBox="0 0 24 16" fill="none" xmlns="http://www.w3.org/2000/svg">
<path d="M11.7881 10.2026C13.1434 10.2026 14.2422 9.10389 14.2422 7.74853C14.2422 6.39317 13.1434 5.29443 11.7881 5.29443C10.4327 5.29443 9.33398 6.39317 9.33398 7.74853C9.33398 9.10389 10.4327 10.2026 11.7881 10.2026Z" stroke="black" stroke-width="2" stroke-linejoin="round"/>
<path d="M11.788 1C6.5058 1 2.55593 5.39688 1.22895 7.09266C0.923684 7.48274 0.923684 8.01479 1.22895 8.40487C2.55593 10.1007 6.5058 14.4975 11.788 14.4975C17.0702 14.4975 21.0201 10.1007 22.3472 8.40487C22.6524 8.01479 22.6524 7.48274 22.3472 7.09266C21.0201 5.39688 17.0702 1 11.788 1Z" stroke="black" stroke-width="2" stroke-linecap="round" stroke-linejoin="round"/>
</svg>
