<svg width="32" height="32" viewBox="0 0 32 32" fill="none" xmlns="http://www.w3.org/2000/svg">
<g clip-path="url(#clip0_275_13765)">
<path fill-rule="evenodd" clip-rule="evenodd" d="M0 6.28569C0 4.39213 1.53502 2.85712 3.42857 2.85712H28.5714C30.4649 2.85712 32 4.39213 32 6.28569V7.06729L16.8763 17.1515C16.663 17.2887 16.3534 17.3866 16 17.3866C15.6466 17.3866 15.3369 17.2887 15.1236 17.1515L0 7.06731V6.28569ZM0 10.5013V25.7143C0 27.6077 1.53502 29.1428 3.42857 29.1428H28.5714C30.4649 29.1428 32 27.6077 32 25.7143V10.5013L18.4535 19.5339L18.4403 19.5427C17.7211 20.0109 16.8574 20.2437 16 20.2437C15.1425 20.2437 14.2789 20.0108 13.5597 19.5426L13.5464 19.534L0 10.5013Z" fill="#CCCCCC"/>
</g>
<defs>
<clipPath id="clip0_275_13765">
<rect width="32" height="32" fill="white"/>
</clipPath>
</defs>
</svg>
