<svg width="36" height="36" viewBox="0 0 36 36" fill="none" xmlns="http://www.w3.org/2000/svg">
<rect width="36" height="36" rx="11.134" fill="#CCCCCC"/>
<path d="M17.8251 7.43739C11.6341 7.762 7.54731 12.6342 7.80551 18.778C7.91829 21.4672 8.99564 23.7812 9.25088 26.3334C9.31617 26.9945 9.12623 27.8105 9.88601 28.0994C10.8209 28.4538 12.2544 27.8582 13.0379 27.3132C13.305 27.1315 13.5603 26.9201 13.7561 26.658C14.5664 27.197 15.3351 27.7182 16.2996 27.9505C20.5467 28.972 25.2003 26.6342 27.269 22.8788C31.1569 15.8237 25.9008 7.0145 17.8251 7.43739ZM15.4211 22.1611C15.0858 22.4231 14.7623 22.7805 14.3913 22.986C13.8541 23.2749 13.6879 22.9741 13.4861 22.4976C12.8509 20.9817 12.7738 18.3997 13.1448 16.8124C13.6434 14.6533 15.3083 12.7533 17.5966 12.5508C19.9116 12.3453 22.0603 13.5246 23.0308 15.6539C25.1796 20.3921 19.6801 25.0707 15.4211 22.1641V22.1611Z" fill="white"/>
</svg>
