<svg width="31" height="31" viewBox="0 0 31 31" fill="none" xmlns="http://www.w3.org/2000/svg">
<path d="M11.3116 29.7134C9.84744 30.6581 8.10273 31.0697 6.3708 30.8791C4.63887 30.6887 3.02534 29.9077 1.80155 28.6675L0.731669 27.6213C0.262624 27.1415 0 26.4972 0 25.8263C0 25.1552 0.262624 24.5109 0.731669 24.0311L5.2727 19.5377C5.74845 19.0702 6.38879 18.8082 7.05583 18.8082C7.72287 18.8082 8.36321 19.0702 8.83896 19.5377C9.31873 20.0068 9.96303 20.2694 10.634 20.2694C11.3049 20.2694 11.9492 20.0068 12.429 19.5377L19.5615 12.4052C19.7994 12.1707 19.9884 11.8913 20.1174 11.5831C20.2463 11.275 20.3127 10.9443 20.3127 10.6102C20.3127 10.2761 20.2463 9.94542 20.1174 9.63726C19.9884 9.3291 19.7994 9.04967 19.5615 8.81518C19.094 8.33943 18.832 7.69909 18.832 7.03205C18.832 6.36503 19.094 5.72466 19.5615 5.24892L24.0787 0.731669C24.5585 0.262624 25.2028 0 25.8739 0C26.5447 0 27.1891 0.262624 27.6689 0.731669L28.7148 1.80156C29.955 3.02535 30.7361 4.63886 30.9267 6.37079C31.1171 8.10272 30.7057 9.84743 29.761 11.3116C24.8394 18.5647 18.5774 24.8105 11.3116 29.7134Z" fill="#CCCCCC"/>
</svg>
