<svg xmlns="http://www.w3.org/2000/svg" width="50" height="50" viewBox="0 0 50 50" fill="none"><path fill-rule="evenodd" clip-rule="evenodd" d="M38.9922 0C39.3058 0 39.6192 0 39.9328 0C41.2962 0.108208 42.5252 0.569082 43.6198 1.38262C44.6743 2.25304 45.2857 3.3723 45.4539 4.74042C45.5809 5.9981 45.4554 7.23338 45.0777 8.44623C44.6582 9.84951 44.0468 11.16 43.2436 12.3778C43.3811 11.6526 43.5034 10.919 43.6104 10.1769C43.7618 9.14061 43.8119 8.09973 43.7609 7.0542C43.7306 6.24342 43.5301 5.47844 43.1589 4.75924C42.686 4.00049 41.9994 3.59604 41.0991 3.54591C40.4921 3.52783 39.8963 3.60308 39.312 3.77165C38.5082 4.00609 37.7308 4.30707 36.9794 4.67459C35.6073 5.36037 34.2781 6.11281 32.9915 6.93193C31.632 7.81453 30.2524 8.6673 28.853 9.49025C28.4512 9.71608 28.0311 9.89791 27.5926 10.0358C26.9839 10.2135 26.3944 10.1633 25.8244 9.88529C25.1916 9.56902 24.5772 9.22415 23.9809 8.85067C22.9057 8.13432 21.8209 7.43204 20.7266 6.74382C19.8592 6.21611 18.9437 5.78973 17.9801 5.46466C16.7504 5.07936 15.5026 5.00412 14.2367 5.23892C12.4599 5.65181 11.0961 6.63311 10.1452 8.18288C9.3292 9.58119 8.92476 11.0924 8.93192 12.7164C8.95869 14.1421 9.16874 15.5404 9.5621 16.9113C10.0215 18.5195 10.6171 20.0746 11.3492 21.5765C12.3448 23.5938 13.4547 25.5375 14.6787 27.4079C16.1149 29.6403 17.6888 31.7723 19.4004 33.8037C20.3339 34.8816 21.2745 35.9539 22.222 37.0205C22.6743 37.5543 23.1195 38.0934 23.5576 38.6382C24.8054 40.024 26.0533 41.4097 27.3011 42.7955C27.3137 42.8081 27.3137 42.8205 27.3011 42.8331C26.3765 42.3098 25.4954 41.7236 24.6581 41.0743C24.0962 40.6441 23.5506 40.1926 23.0215 39.7199C22.1869 38.9416 21.3467 38.1704 20.5008 37.4061C20.065 36.9954 19.6418 36.5722 19.2311 36.1363C18.1073 34.9375 16.9975 33.7272 15.9015 32.5058C13.2449 29.4636 10.9499 26.1654 9.01657 22.6111C8.02193 20.7745 7.20679 18.862 6.57112 16.8737C6.1003 15.3849 5.81813 13.8612 5.72461 12.3025C5.623 10.6307 5.8989 9.02549 6.55231 7.48686C6.9271 6.66763 7.40993 5.92147 8.00077 5.24833C9.4472 3.63291 11.1872 2.44467 13.2209 1.6836C15.0763 1.064 16.9387 1.04519 18.8078 1.62717C19.5275 1.85847 20.2235 2.1469 20.8959 2.49248C21.3785 2.75259 21.8551 3.02221 22.3255 3.30137C22.9996 3.72934 23.6706 4.162 24.3383 4.59934C24.8902 4.96633 25.4734 5.27984 26.0877 5.5399C26.2789 5.61513 26.4764 5.66215 26.6803 5.68098C26.91 5.66767 27.1325 5.62064 27.3481 5.5399C28.0618 5.23638 28.7452 4.87897 29.3985 4.46766C30.1585 3.9774 30.9235 3.49458 31.6935 3.0192C32.4083 2.61162 33.1231 2.20405 33.838 1.79647C34.6 1.3747 35.3839 0.998474 36.1894 0.667798C37.0934 0.307114 38.0278 0.0845142 38.9922 0Z" fill="black"></path><path fill-rule="evenodd" clip-rule="evenodd" d="M7.69049 29.1196C7.7021 29.1217 7.7115 29.1279 7.71871 29.1384C7.77403 29.3138 7.82732 29.4895 7.8786 29.6652C8.16741 29.6631 8.45584 29.6725 8.74392 29.6934C8.5011 29.8006 8.2597 29.9105 8.01969 30.0226C8.06986 30.2107 8.12001 30.3988 8.17018 30.5869C7.95234 30.4701 7.73601 30.351 7.52119 30.2295C7.2782 30.3397 7.03366 30.4464 6.78755 30.5493C6.78128 30.5431 6.77501 30.5367 6.76874 30.5305C6.88161 30.355 6.99447 30.1793 7.10734 30.0038C6.89735 29.8894 6.69042 29.7703 6.48657 29.6463C6.77353 29.6478 7.06197 29.6446 7.35189 29.6369C7.46729 29.4656 7.58016 29.2931 7.69049 29.1196Z" fill="black"></path><path fill-rule="evenodd" clip-rule="evenodd" d="M6.59935 31.9038C6.61097 31.9059 6.62037 31.9121 6.62757 31.9226C6.68775 32.1376 6.75359 32.3508 6.82509 32.5622C7.16995 32.5748 7.51484 32.5872 7.85971 32.5998C7.56115 32.746 7.26017 32.8871 6.95677 33.0231C7.02622 33.2251 7.09206 33.429 7.15429 33.6344C7.16898 33.6615 7.16584 33.6867 7.14488 33.7097C6.89245 33.5631 6.6385 33.4189 6.38303 33.277C6.12196 33.3967 5.86174 33.5189 5.60236 33.6438C5.55365 33.6685 5.50349 33.6811 5.45187 33.6815C5.59843 33.4604 5.74265 33.2379 5.88453 33.0137C5.63748 32.8619 5.38666 32.7146 5.13208 32.5716C5.48322 32.5654 5.83436 32.559 6.18551 32.5528C6.32767 32.3387 6.46561 32.1224 6.59935 31.9038Z" fill="black"></path><path fill-rule="evenodd" clip-rule="evenodd" d="M5 36.268C5 36.2618 5 36.2554 5 36.2492C5.46405 36.2524 5.92806 36.2492 6.39203 36.2397C6.57961 35.9239 6.774 35.6135 6.97518 35.3086C7.07076 35.6126 7.16481 35.9168 7.25735 36.2209C7.71508 36.2271 8.17283 36.2335 8.63056 36.2397C8.24247 36.4448 7.85056 36.6423 7.45486 36.8323C7.53009 37.1585 7.621 37.4815 7.72763 37.8011C7.72136 37.8043 7.71508 37.8073 7.70881 37.8105C7.36628 37.6111 7.02141 37.4166 6.6742 37.2273C6.25752 37.4153 5.84681 37.616 5.44206 37.8293C5.44267 37.7898 5.45521 37.7522 5.47969 37.7164C5.66311 37.4311 5.84181 37.1427 6.01581 36.8511C5.67688 36.6562 5.33828 36.4619 5 36.268Z" fill="black"></path><path fill-rule="evenodd" clip-rule="evenodd" d="M8.49845 39.4658C8.51888 39.4681 8.53142 39.4807 8.53607 39.5034C8.64802 39.9043 8.76715 40.3025 8.89348 40.698C9.43929 40.7053 9.98482 40.6959 10.5301 40.6697C10.5614 40.6759 10.5928 40.6823 10.6241 40.6885C10.1334 40.9606 9.64117 41.2301 9.14743 41.4974C9.25071 41.9079 9.36986 42.3153 9.50485 42.7202C9.51739 42.7452 9.51739 42.7704 9.50485 42.7954C9.06124 42.5407 8.61918 42.2836 8.17866 42.0241C7.65522 42.3016 7.13477 42.5838 6.61733 42.8706C6.59812 42.8612 6.59499 42.8486 6.60792 42.833C6.85323 42.4019 7.10091 41.9724 7.35096 41.5445C6.90715 41.2948 6.46822 41.0379 6.03418 40.7732C6.62383 40.7595 7.21325 40.7407 7.80243 40.7168C8.04205 40.3033 8.27405 39.8863 8.49845 39.4658Z" fill="black"></path><path fill-rule="evenodd" clip-rule="evenodd" d="M13.0135 42.2686C13.2128 42.7911 13.3946 43.3241 13.559 43.8675C14.2801 43.8393 15.0012 43.8173 15.7223 43.8017C15.1172 44.17 14.5089 44.5338 13.8976 44.8927C14.1018 45.449 14.2868 46.0101 14.4525 46.5763C13.8897 46.2368 13.3222 45.9046 12.7501 45.5793C12.1168 45.9556 11.4835 46.3318 10.8502 46.708C10.8439 46.7018 10.8376 46.6954 10.8314 46.6892C11.1174 46.1139 11.4058 45.5402 11.6967 44.968C11.1292 44.6435 10.5649 44.3143 10.0037 43.9804C10.744 43.9563 11.4839 43.9251 12.2234 43.8863C12.487 43.3466 12.7504 42.8073 13.0135 42.2686Z" fill="black"></path><path fill-rule="evenodd" clip-rule="evenodd" d="M29.5865 43.1716C29.9708 43.9623 30.3532 44.7555 30.734 45.5512C31.7095 45.5223 32.6845 45.4815 33.6591 45.429C33.6685 45.4352 33.6779 45.4416 33.6873 45.4478C32.9443 45.9995 32.198 46.5481 31.4488 47.0938C31.85 47.9275 32.2513 48.7614 32.6527 49.5957C32.6324 49.6246 32.6074 49.6246 32.5775 49.5957C31.7201 49.112 30.8641 48.6261 30.0097 48.1378C29.2212 48.7155 28.4341 49.2954 27.6489 49.8778C27.6252 49.8963 27.6002 49.9027 27.5737 49.8966C27.8521 49.0054 28.1185 48.1118 28.3732 47.216C27.5095 46.7324 26.6472 46.2465 25.7866 45.7582C26.8145 45.707 27.8429 45.6662 28.8717 45.6359C29.1023 44.8123 29.3406 43.991 29.5865 43.1716Z" fill="black"></path><path fill-rule="evenodd" clip-rule="evenodd" d="M18.4503 50C18.444 50 18.4377 50 18.4315 50C18.705 49.2611 18.9934 48.5275 19.2968 47.7991C19.2878 47.7807 19.2753 47.7651 19.2592 47.7521C18.5696 47.3696 17.8861 46.9778 17.2087 46.5764C18.08 46.5299 18.9516 46.4891 19.8235 46.4541C20.089 45.7705 20.3617 45.0901 20.6418 44.4131C20.9093 45.0651 21.1695 45.7203 21.4225 46.3789C22.2689 46.3521 23.1154 46.3271 23.962 46.3036C23.2793 46.7545 22.6021 47.2122 21.9304 47.6768C22.2026 48.3747 22.4785 49.0707 22.758 49.7649C22.0449 49.3689 21.3332 48.9645 20.623 48.5516C19.893 49.0277 19.1687 49.5105 18.4503 50Z" fill="black"></path><style>@media (prefers-color-scheme: light) { :root { filter: none; } }
@media (prefers-color-scheme: dark) { :root { filter: invert(100%); } }
</style></svg>